<?xml version="1.0"?>
<svg xmlns="http://www.w3.org/2000/svg" id="Layer_5" enable-background="new 0 0 64 64" height="512px" viewBox="0 0 64 64" width="512px" class=""><g><path d="m52.672 57c-2.925 0-4.44 1.174-5.777 2.209-1.241.961-2.313 1.791-4.553 1.791-2.242 0-3.314-.83-4.556-1.791-1.338-1.035-2.854-2.209-5.779-2.209-2.924 0-4.44 1.174-5.777 2.209-1.242.961-2.313 1.791-4.554 1.791-2.243 0-3.315-.83-4.557-1.791-1.339-1.035-2.855-2.209-5.781-2.209s-4.442 1.174-5.781 2.209c-1.242.961-2.314 1.791-4.557 1.791v2c2.926 0 4.442-1.174 5.781-2.209 1.241-.961 2.314-1.791 4.557-1.791s3.315.83 4.557 1.791c1.338 1.035 2.855 2.209 5.781 2.209 2.925 0 4.44-1.174 5.778-2.21 1.241-.96 2.312-1.79 4.553-1.79s3.313.83 4.555 1.791c1.337 1.035 2.854 2.209 5.78 2.209 2.925 0 4.44-1.174 5.777-2.209 1.24-.961 2.313-1.791 4.553-1.791s3.312.83 4.552 1.791c1.337 1.035 2.852 2.209 5.776 2.209v-2c-2.24 0-3.312-.83-4.552-1.791-1.337-1.035-2.852-2.209-5.776-2.209z" data-original="#000000" class="active-path" data-old_color="#000000" fill="#FFFFFF"/><path d="m52.672 51c-2.925 0-4.44 1.174-5.777 2.209-1.241.961-2.313 1.791-4.553 1.791-2.242 0-3.314-.83-4.556-1.791-1.338-1.035-2.854-2.209-5.779-2.209-2.924 0-4.44 1.174-5.777 2.209-1.242.961-2.313 1.791-4.554 1.791-2.243 0-3.315-.83-4.557-1.791-1.339-1.035-2.855-2.209-5.781-2.209s-4.442 1.174-5.781 2.209c-1.242.961-2.314 1.791-4.557 1.791v2c2.926 0 4.442-1.174 5.781-2.209 1.241-.961 2.314-1.791 4.557-1.791s3.315.83 4.557 1.791c1.338 1.035 2.855 2.209 5.781 2.209 2.925 0 4.44-1.174 5.778-2.21 1.241-.96 2.312-1.79 4.553-1.79s3.313.83 4.555 1.791c1.337 1.035 2.854 2.209 5.78 2.209 2.925 0 4.44-1.174 5.777-2.209 1.24-.961 2.313-1.791 4.553-1.791s3.312.83 4.552 1.791c1.337 1.035 2.852 2.209 5.776 2.209v-2c-2.24 0-3.312-.83-4.552-1.791-1.337-1.035-2.852-2.209-5.776-2.209z" data-original="#000000" class="active-path" data-old_color="#000000" fill="#FFFFFF"/><path d="m58.448 47.209c-1.099-.851-2.333-1.785-4.358-2.094 2.497-2.964 3.91-6.727 3.91-10.643 0-1.914-1.558-3.472-3.472-3.472-1.323 0-2.514.735-3.106 1.919-.642 1.284-1.932 2.081-3.366 2.081h-3.056v-9.197l1.169-.26c4.611-1.024 7.831-5.039 7.831-9.763v-4.366l.086-.086c.581-.581.914-1.385.914-2.207 0-.9-.389-1.706-1-2.276v-1.845c0-2.206-1.794-4-4-4s-4 1.794-4 4v5.586l-6.414 6.414h-2.312c1.667-1.467 2.726-3.61 2.726-6 0-4.411-3.589-8-8-8s-8 3.589-8 8c0 2.39 1.059 4.533 2.726 6h-5.726c-1.654 0-3-1.346-3-3v-9c0-2.206-1.794-4-4-4s-4 1.794-4 4v10.78c0 4.724 3.22 8.738 7.831 9.763l1.169.26v9.197h-3.056c-1.435 0-2.725-.797-3.366-2.081-.593-1.184-1.783-1.919-3.106-1.919-1.914 0-3.472 1.558-3.472 3.472 0 3.552 1.163 7.008 3.269 9.845l-1.388 1.388c-.925.424-1.649.982-2.325 1.504-1.241.961-2.313 1.791-4.556 1.791v2c2.926 0 4.442-1.174 5.781-2.209 1.241-.961 2.314-1.791 4.557-1.791s3.315.83 4.557 1.791c1.338 1.035 2.855 2.209 5.781 2.209 2.925 0 4.44-1.174 5.778-2.21 1.241-.96 2.312-1.79 4.553-1.79s3.313.83 4.555 1.791c1.337 1.035 2.854 2.209 5.78 2.209 2.925 0 4.44-1.174 5.777-2.209 1.24-.961 2.313-1.791 4.553-1.791s3.312.83 4.552 1.791c1.337 1.035 2.852 2.209 5.776 2.209v-2c-2.24 0-3.312-.83-4.552-1.791zm-28.034-12.209 2-2h10.586v2zm12.586-8h-4.586l4.586-4.586zm-6.586 2h6.586v2h-8.586zm15.586-13.22c0 3.778-2.576 6.99-6.265 7.81l-.735.163v-3.339l7-7zm-4-10.78c0-1.103.897-2 2-2s2 .897 2 2v1.012c-.041-.001-.08-.012-.121-.012-.822 0-1.626.333-2.207.914l-1.672 1.672zm-10.414 14-4.968 4.968-3.644-4.968zm-11.586-8c0-3.309 2.691-6 6-6s6 2.691 6 6-2.691 6-6 6-6-2.691-6-6zm.493 8 4.693 6.4-1.6 1.6h-8.586v-8zm-.907 12h-4.586v-2h6.586zm-7.321-7.41c-3.689-.819-6.265-4.031-6.265-7.81v-10.78c0-1.103.897-2 2-2s2 .897 2 2v9c0 2.045 1.237 3.802 3 4.576v5.177zm2.735 9.41h2.586l-2 2h-.586zm-13 1.472c0-.812.66-1.472 1.472-1.472.562 0 1.066.312 1.317.813.982 1.966 2.958 3.187 5.155 3.187h3.642l-2.097 2.097-2.119.53c-1.23.308-2.355.943-3.252 1.841l-1.423 1.423c-1.741-2.448-2.695-5.395-2.695-8.419zm3.41 10.532 2.122-2.122c.641-.641 1.443-1.096 2.322-1.315l2.656-.663 32.576-32.576c.209-.209.498-.328.793-.328.618 0 1.121.503 1.121 1.121 0 .295-.119.584-.328.793l-32.575 32.575-.663 2.656c-.22.879-.675 1.682-1.315 2.322l-.281.281c-.239-.172-.476-.352-.718-.539-1.328-1.026-2.834-2.185-5.71-2.205zm35.485 2.205c-1.241.961-2.313 1.791-4.553 1.791-2.242 0-3.314-.83-4.556-1.791-1.338-1.035-2.854-2.209-5.779-2.209-2.924 0-4.44 1.174-5.777 2.209-1.242.961-2.313 1.791-4.554 1.791-.795 0-1.437-.108-1.998-.285.816-.869 1.405-1.926 1.695-3.085l.53-2.119 6.511-6.511h19.642c2.197 0 4.173-1.221 5.155-3.187.251-.501.756-.813 1.317-.813.812 0 1.472.66 1.472 1.472 0 4.03-1.693 7.881-4.637 10.625-2.093.29-3.349 1.245-4.468 2.112z" data-original="#000000" class="active-path" data-old_color="#000000" fill="#FFFFFF"/><path d="m50.678 38.551c-.836.298-1.719.449-2.622.449h-6.017v2h6.017c1.133 0 2.241-.19 3.294-.566z" data-original="#000000" class="active-path" data-old_color="#000000" fill="#FFFFFF"/><path d="m38 39h2v2h-2z" data-original="#000000" class="active-path" data-old_color="#000000" fill="#FFFFFF"/><path d="m34 39h2v2h-2z" data-original="#000000" class="active-path" data-old_color="#000000" fill="#FFFFFF"/></g> </svg>
