<svg height="496pt" viewBox="0 -36 496 496" width="496pt" xmlns="http://www.w3.org/2000/svg"><g fill="#231f20"><path d="m8 288.140625c-4.417969 0-8 3.582031-8 8s3.582031 8 8 8h440c4.417969 0 8-3.582031 8-8s-3.582031-8-8-8h-64v-48.40625c64.574219-4.316406 114.089844-59.054687 111.933594-123.738281-2.160156-64.679688-55.21875-115.996094-119.933594-115.996094s-117.773438 51.316406-119.933594 115.996094c-2.15625 64.683594 47.359375 119.421875 111.933594 123.738281v48.40625h-240v-48.40625c64.574219-4.316406 114.089844-59.054687 111.933594-123.738281-2.160156-64.679688-55.21875-115.996094-119.933594-115.996094s-117.773438 51.316406-119.9335938 115.996094c-2.1562502 64.683594 47.3593748 119.421875 111.9335938 123.738281v48.40625zm264-168c-.054688-56.410156 44.871094-102.578125 101.265625-104.0625 56.390625-1.484375 103.683594 42.257813 106.59375 98.59375 2.914063 56.335937-39.617187 104.722656-95.859375 109.0625v-35.59375l28.800781-21.597656c3.535157-2.652344 4.25-7.667969 1.597657-11.203125-2.648438-3.535156-7.664063-4.25-11.199219-1.597656l-19.199219 14.398437v-32c0-4.417969-3.582031-8-8-8s-8 3.582031-8 8v19.054687l-20.425781-10.214843c-3.953125-1.972657-8.757813-.371094-10.734375 3.585937-1.976563 3.953125-.371094 8.757813 3.585937 10.734375l27.574219 13.785157v50.648437c-54.121094-4.207031-95.917969-49.308594-96-103.59375zm-256 0c-.054688-56.410156 44.871094-102.578125 101.265625-104.0625 56.390625-1.484375 103.683594 42.257813 106.59375 98.59375 2.914063 56.335937-39.617187 104.722656-95.859375 109.0625v-35.59375l28.800781-21.597656c3.535157-2.652344 4.25-7.667969 1.597657-11.203125-2.648438-3.535156-7.664063-4.25-11.199219-1.597656l-19.199219 14.398437v-32c0-4.417969-3.582031-8-8-8s-8 3.582031-8 8v19.054687l-20.425781-10.214843c-3.953125-1.972657-8.757813-.371094-10.734375 3.585937-1.976563 3.953125-.371094 8.757813 3.585937 10.734375l27.574219 13.785157v50.648437c-54.121094-4.207031-95.917969-49.308594-96-103.59375zm0 0"/><path d="m488 288.140625h-16c-4.417969 0-8 3.582031-8 8s3.582031 8 8 8h16c4.417969 0 8-3.582031 8-8s-3.582031-8-8-8zm0 0"/><path d="m488 408.140625h-440c-4.417969 0-8 3.582031-8 8s3.582031 8 8 8h440c4.417969 0 8-3.582031 8-8s-3.582031-8-8-8zm0 0"/><path d="m24 408.140625h-16c-4.417969 0-8 3.582031-8 8s3.582031 8 8 8h16c4.417969 0 8-3.582031 8-8s-3.582031-8-8-8zm0 0"/><path d="m472 320.140625c-11.332031-.242187-22.476562 2.914063-32 9.054687-14.695312 9.265626-33.402344 9.265626-48.097656 0-19.605469-12.070312-44.339844-12.070312-63.949219 0-14.683594 9.261719-33.382813 9.261719-48.066406 0-19.601563-12.074218-44.339844-12.074218-63.941407 0-7.097656 4.726563-15.476562 7.152344-24 6.945313-8.523437.207031-16.90625-2.21875-24-6.945313-9.507812-6.136718-20.632812-9.289062-31.945312-9.054687-11.332031-.246094-22.476562 2.910156-32 9.054687-7.097656 4.726563-15.476562 7.152344-24 6.945313-8.523438.207031-16.902344-2.21875-24-6.945313-9.523438-6.140624-20.667969-9.296874-32-9.054687-4.417969 0-8 3.582031-8 8s3.582031 8 8 8c8.523438-.207031 16.902344 2.21875 24 6.945313 9.523438 6.144531 20.667969 9.296874 32 9.054687 11.332031.246094 22.476562-2.90625 32-9.054687 7.097656-4.726563 15.476562-7.152344 24-6.945313 8.523438-.207031 16.902344 2.21875 24 6.945313 9.523438 6.144531 20.667969 9.296874 32 9.054687 11.320312.238281 22.449219-2.914063 31.960938-9.054687 14.6875-9.257813 33.382812-9.257813 48.070312 0 19.601562 12.074218 44.335938 12.074218 63.9375 0 14.6875-9.257813 33.390625-9.257813 48.078125 0 19.621094 12.085937 44.378906 12.085937 64 0 7.085937-4.710938 15.445313-7.132813 23.953125-6.945313 4.417969 0 8-3.582031 8-8s-3.582031-8-8-8zm0 0"/><path d="m472 360.140625c-11.332031-.242187-22.476562 2.914063-32 9.054687-14.695312 9.265626-33.402344 9.265626-48.097656 0-19.605469-12.070312-44.339844-12.070312-63.949219 0-14.683594 9.261719-33.382813 9.261719-48.066406 0-19.601563-12.074218-44.339844-12.074218-63.941407 0-7.097656 4.726563-15.476562 7.152344-24 6.945313-8.523437.207031-16.90625-2.21875-24-6.945313-9.507812-6.136718-20.632812-9.289062-31.945312-9.054687-11.332031-.246094-22.476562 2.910156-32 9.054687-7.097656 4.726563-15.476562 7.152344-24 6.945313-8.523438.207031-16.902344-2.21875-24-6.945313-9.523438-6.140624-20.667969-9.296874-32-9.054687-4.417969 0-8 3.582031-8 8s3.582031 8 8 8c8.523438-.207031 16.902344 2.21875 24 6.945313 9.523438 6.144531 20.667969 9.296874 32 9.054687 11.332031.246094 22.476562-2.90625 32-9.054687 7.097656-4.726563 15.476562-7.152344 24-6.945313 8.523438-.207031 16.902344 2.21875 24 6.945313 9.523438 6.144531 20.667969 9.296874 32 9.054687 11.320312.238281 22.449219-2.914063 31.960938-9.054687 14.6875-9.257813 33.382812-9.257813 48.070312 0 19.601562 12.074218 44.335938 12.074218 63.9375 0 14.6875-9.257813 33.390625-9.257813 48.078125 0 19.621094 12.085937 44.378906 12.085937 64 0 7.085937-4.710938 15.445313-7.132813 23.953125-6.945313 4.417969 0 8-3.582031 8-8s-3.582031-8-8-8zm0 0"/></g></svg>